# xmcd
#
# Track frame offsets: 
#        150
#        42110
#        101840
#        136915
#        185418
#        201884
#        238838
#        264324
#
# Disc length: 3864 seconds
#
# Revision: 1
# Processed by: cddbd v1.5.2PL0 Copyright (c) Steve Scherf et al.
# Submitted via: ExactAudioCopy v1.0b3
#
DISCID=6d0f1608
DTITLE=Eric Dolphy - Candid Dolphy
DYEAR=1989
DGENRE=Jazz
TTITLE0=Reincarnation of a Love Bird (Take 1)
TTITLE1=Stormy Weather (Take 1)
TTITLE2=T'ain't Nobody's Bizness if I Do (Take 3)
TTITLE3=Body and Soul (Take 2)
TTITLE4=African Lady (Take 4)
TTITLE5=Quiet, Please (Take 1)
TTITLE6=Moods in Free Time (Take 5)
TTITLE7=Hazy Hues (Take 5)
EXTD=
EXTT0=
EXTT1=
EXTT2=
EXTT3=
EXTT4=
EXTT5=
EXTT6=
EXTT7=
PLAYORDER=
